<?xml version="1.0" encoding="iso-8859-1"?>
<!-- Generator: Adobe Illustrator 19.0.0, SVG Export Plug-In . SVG Version: 6.00 Build 0)  -->
<svg version="1.1" id="Capa_1" xmlns="http://www.w3.org/2000/svg" xmlns:xlink="http://www.w3.org/1999/xlink" x="0px" y="0px"
	 viewBox="0 0 512 512" style="enable-background:new 0 0 512 512;" xml:space="preserve">
<g>
	<path style="fill:#F8B64C;" d="M180.341,319.435v-0.021l0.043,0.021v-0.021v0.021c37.899,50.208,113.291,50.208,151.211,0.021
		l0.021-0.043v0.021v-55.381H180.299v55.403L180.341,319.435z"/>
	<path style="fill:#F8B64C;" d="M181.131,175.712c1.685,19.147-7.605,35.605-20.725,36.747
		c-13.141,1.152-25.163-13.44-26.837-32.587c-1.685-19.147,7.605-35.595,20.747-36.747
		C167.445,141.973,179.467,156.565,181.131,175.712"/>
	<path style="fill:#F8B64C;" d="M378.549,179.872c-1.685,19.147-13.685,33.739-26.837,32.587
		c-13.12-1.141-22.421-17.589-20.747-36.747c1.664-19.147,13.685-33.728,26.837-32.587
		C370.923,144.267,380.213,160.725,378.549,179.872"/>
</g>
<path style="fill:#FFD15C;" d="M366.507,116.576v36.267c0,1.173,0,2.347-0.107,3.52c0,0.64,0,1.387-0.107,2.027
	c-0.128,5.867-0.544,11.627-1.291,17.387c-1.6,12.587-4.267,24.96-8,36.907c-9.067,28.896-24.309,55.563-44.896,78.069l-10.56,11.52
	c-9.6,10.56-23.253,16.533-37.557,16.533h-16c-14.165,0-27.829-6.08-37.44-16.533l-10.443-11.52
	c-14.624-15.883-26.56-34.027-35.413-53.333c-8.96-19.403-14.933-40.213-17.504-61.643c-0.747-5.653-1.163-11.52-1.269-17.28v-1.173
	c0-0.107-0.107-0.107-0.107-0.213c-0.128-1.387-0.128-2.891-0.128-4.267c-0.107-0.853-0.107-1.6-0.107-2.443v-33.173
	c0-6.187,0.544-12.267,1.6-18.24c0.651-4.16,1.504-8.107,2.667-12.053c13.12-46.187,55.691-80.107,106.251-80.107
	c50.443,0,93.003,33.92,106.123,80.107c1.163,3.947,2.123,7.893,2.773,12.053C365.963,104.736,366.507,110.603,366.507,116.576"/>
<g style="opacity:0.1;">
	<g>
		<path style="fill:#40596B;" d="M312.107,290.731l-10.56,11.52c-9.6,10.56-23.253,16.544-37.547,16.544h-16
			c-6.912,0-13.664-1.504-19.915-4.181l52.608,39.083c19.253-5.152,37.12-16.32,50.453-33.749c0.149-0.203,0.288-0.341,0.437-0.544
			l0.021-54.133C325.717,274.165,319.36,282.795,312.107,290.731"/>
	</g>
</g>
<path style="fill:#40596B;" d="M512,434.752V512H0v-77.248c0-20.373,12.491-49.376,31.467-56.736l118.603-53.109L256,351.445
	l105.92-26.549l118.709,53.109C499.531,385.483,512,414.379,512,434.752"/>
<g>
	<polygon style="fill:#CDD6E0;" points="361.92,324.896 293.856,428.149 256,351.445 331.531,308.896 331.627,308.896 
		331.733,308.779 	"/>
	<polygon style="fill:#CDD6E0;" points="150.069,324.896 218.229,428.149 256,351.445 180.48,308.896 180.256,308.779 	"/>
</g>
<polygon style="fill:#334A5E;" points="218.229,512 239.776,441.397 230.4,427.627 223.467,417.397 256,351.467 288.523,417.397 
	281.589,427.52 272.213,441.397 293.856,512 "/>
<path style="fill:#F2F2F2;" d="M380.587,490.325c0,0-7.669,1.056-8.107,3.467c0-2.421-8.107-3.467-8.107-3.467
	c-32.672-1.749-24.768-32.661-24.768-32.661c8.981-11.829,0-25.419,0-25.419l12.917-13.813c10.315,10.517,19.957,0,19.957,0
	s9.856,10.517,19.936,0l12.939,13.813c0,0-9.003,13.579,0,25.419C405.355,457.664,413.237,488.576,380.587,490.325"/>
<g>
	<polygon style="fill:#40596B;" points="372.48,432.747 377.76,448.96 394.795,448.96 381.003,458.976 386.272,475.211 
		372.48,465.184 358.688,475.211 363.968,458.976 350.155,448.96 367.211,448.96 	"/>
	<path style="fill:#40596B;" d="M390.293,101.675c0,56.171-265.067,56.171-265.067,0C125.237,45.525,184.565,0,257.76,0
		C330.965,0,390.293,45.525,390.293,101.675"/>
</g>
<path style="fill:#334A5E;" d="M139.648,122.144v4.427c0,14.197,9.227,26.549,21.856,28.597c62.667,10.197,126.453,10.197,189.141,0
	c12.608-2.037,21.835-14.4,21.835-28.597v-4.427C295.563,106.656,216.565,106.656,139.648,122.144"/>
<path style="fill:#F2F2F2;" d="M265.632,86.848c0,0-7.435,1.024-7.851,3.36c0-2.347-7.872-3.36-7.872-3.36
	c-31.712-1.696-24.043-31.712-24.043-31.712c8.704-11.477,0-24.672,0-24.672L238.4,17.067c10.005,10.208,19.371,0,19.371,0
	s9.557,10.208,19.349,0l12.544,13.397c0,0-8.704,13.195,0,24.672C289.675,55.136,297.333,85.141,265.632,86.848"/>
<polygon style="fill:#334A5E;" points="257.781,30.944 262.88,46.688 279.445,46.688 266.048,56.416 271.168,72.171 257.781,62.432 
	244.363,72.171 249.483,56.416 236.085,46.688 252.651,46.688 "/>
<polygon style="fill:#2B4656;" points="288.523,417.397 281.589,427.52 255.989,375.584 230.4,427.627 223.467,417.397 
	255.989,351.467 "/>
<g>
</g>
<g>
</g>
<g>
</g>
<g>
</g>
<g>
</g>
<g>
</g>
<g>
</g>
<g>
</g>
<g>
</g>
<g>
</g>
<g>
</g>
<g>
</g>
<g>
</g>
<g>
</g>
<g>
</g>
</svg>
